<mxfile host="app.diagrams.net" modified="2023-05-11T02:27:01.137Z" agent="Mozilla/5.0 (X11; Linux x86_64) AppleWebKit/537.36 (KHTML, like Gecko) Chrome/113.0.0.0 Safari/537.36" etag="QvQI7XT2B2Ced1ZNd45U" version="21.2.9" type="device">
  <diagram name="Page-1" id="WCoU5bMxbycakwE1r1fq">
    <mxGraphModel dx="1877" dy="586" grid="1" gridSize="10" guides="1" tooltips="1" connect="1" arrows="1" fold="1" page="1" pageScale="1" pageWidth="827" pageHeight="1169" math="0" shadow="0">
      <root>
        <mxCell id="0" />
        <mxCell id="1" parent="0" />
        <mxCell id="Pa2Hh7tVbbIS_vWkaWcR-7" value="Product" style="whiteSpace=wrap;html=1;align=center;" parent="1" vertex="1">
          <mxGeometry x="-103" y="301.13" width="100" height="40" as="geometry" />
        </mxCell>
        <mxCell id="Pa2Hh7tVbbIS_vWkaWcR-8" value="Unit Price" style="ellipse;whiteSpace=wrap;html=1;align=center;fontStyle=0;" parent="1" vertex="1">
          <mxGeometry x="-140" y="170.13" width="100" height="40" as="geometry" />
        </mxCell>
        <mxCell id="Pa2Hh7tVbbIS_vWkaWcR-9" value="Name" style="ellipse;whiteSpace=wrap;html=1;align=center;" parent="1" vertex="1">
          <mxGeometry x="-33" y="169.13" width="100" height="40" as="geometry" />
        </mxCell>
        <mxCell id="Pa2Hh7tVbbIS_vWkaWcR-10" value="Description" style="ellipse;whiteSpace=wrap;html=1;align=center;" parent="1" vertex="1">
          <mxGeometry x="20" y="218.13" width="100" height="40" as="geometry" />
        </mxCell>
        <mxCell id="Pa2Hh7tVbbIS_vWkaWcR-11" value="&lt;u&gt;Code&lt;/u&gt;" style="ellipse;whiteSpace=wrap;html=1;align=center;" parent="1" vertex="1">
          <mxGeometry x="-219" y="210.13" width="100" height="40" as="geometry" />
        </mxCell>
        <mxCell id="Pa2Hh7tVbbIS_vWkaWcR-12" value="" style="endArrow=none;html=1;rounded=0;exitX=0.5;exitY=0;exitDx=0;exitDy=0;entryX=1;entryY=1;entryDx=0;entryDy=0;" parent="1" source="Pa2Hh7tVbbIS_vWkaWcR-7" target="Pa2Hh7tVbbIS_vWkaWcR-11" edge="1">
          <mxGeometry width="50" height="50" relative="1" as="geometry">
            <mxPoint x="-46" y="370.13" as="sourcePoint" />
            <mxPoint x="-130" y="240.13" as="targetPoint" />
          </mxGeometry>
        </mxCell>
        <mxCell id="Pa2Hh7tVbbIS_vWkaWcR-13" value="" style="endArrow=none;html=1;rounded=0;exitX=0.5;exitY=0;exitDx=0;exitDy=0;" parent="1" source="Pa2Hh7tVbbIS_vWkaWcR-7" target="Pa2Hh7tVbbIS_vWkaWcR-8" edge="1">
          <mxGeometry width="50" height="50" relative="1" as="geometry">
            <mxPoint x="-100" y="320.13" as="sourcePoint" />
            <mxPoint x="-120" y="310.13" as="targetPoint" />
          </mxGeometry>
        </mxCell>
        <mxCell id="Pa2Hh7tVbbIS_vWkaWcR-14" value="" style="endArrow=none;html=1;rounded=0;entryX=0.5;entryY=1;entryDx=0;entryDy=0;exitX=0.5;exitY=0;exitDx=0;exitDy=0;" parent="1" source="Pa2Hh7tVbbIS_vWkaWcR-7" target="Pa2Hh7tVbbIS_vWkaWcR-9" edge="1">
          <mxGeometry width="50" height="50" relative="1" as="geometry">
            <mxPoint x="-60" y="290.13" as="sourcePoint" />
            <mxPoint x="-95" y="274.13" as="targetPoint" />
          </mxGeometry>
        </mxCell>
        <mxCell id="Pa2Hh7tVbbIS_vWkaWcR-15" value="" style="endArrow=none;html=1;rounded=0;entryX=0.5;entryY=0;entryDx=0;entryDy=0;exitX=0;exitY=1;exitDx=0;exitDy=0;" parent="1" source="Pa2Hh7tVbbIS_vWkaWcR-10" target="Pa2Hh7tVbbIS_vWkaWcR-7" edge="1">
          <mxGeometry width="50" height="50" relative="1" as="geometry">
            <mxPoint x="-40" y="310.13" as="sourcePoint" />
            <mxPoint x="-85" y="284.13" as="targetPoint" />
          </mxGeometry>
        </mxCell>
        <mxCell id="Pa2Hh7tVbbIS_vWkaWcR-16" value="Supplier" style="whiteSpace=wrap;html=1;align=center;" parent="1" vertex="1">
          <mxGeometry x="-450" y="189.13" width="100" height="40" as="geometry" />
        </mxCell>
        <mxCell id="Pa2Hh7tVbbIS_vWkaWcR-17" value="Code" style="ellipse;whiteSpace=wrap;html=1;align=center;fontStyle=4;" parent="1" vertex="1">
          <mxGeometry x="-580" y="129.13" width="100" height="40" as="geometry" />
        </mxCell>
        <mxCell id="Pa2Hh7tVbbIS_vWkaWcR-18" value="Name" style="ellipse;whiteSpace=wrap;html=1;align=center;" parent="1" vertex="1">
          <mxGeometry x="-425" y="70.13" width="100" height="40" as="geometry" />
        </mxCell>
        <mxCell id="Pa2Hh7tVbbIS_vWkaWcR-19" value="CNPJ" style="ellipse;whiteSpace=wrap;html=1;align=center;fontStyle=4;" parent="1" vertex="1">
          <mxGeometry x="-541" y="76.13" width="100" height="40" as="geometry" />
        </mxCell>
        <mxCell id="Pa2Hh7tVbbIS_vWkaWcR-21" value="Address" style="ellipse;whiteSpace=wrap;html=1;align=center;" parent="1" vertex="1">
          <mxGeometry x="-341" y="110.13" width="100" height="40" as="geometry" />
        </mxCell>
        <mxCell id="Pa2Hh7tVbbIS_vWkaWcR-22" value="" style="endArrow=none;html=1;rounded=0;entryX=0.677;entryY=0.943;entryDx=0;entryDy=0;exitX=0.5;exitY=0;exitDx=0;exitDy=0;entryPerimeter=0;" parent="1" source="Pa2Hh7tVbbIS_vWkaWcR-16" target="Pa2Hh7tVbbIS_vWkaWcR-19" edge="1">
          <mxGeometry width="50" height="50" relative="1" as="geometry">
            <mxPoint x="-420" y="179.13" as="sourcePoint" />
            <mxPoint x="-481" y="120.13" as="targetPoint" />
          </mxGeometry>
        </mxCell>
        <mxCell id="Pa2Hh7tVbbIS_vWkaWcR-23" value="" style="endArrow=none;html=1;rounded=0;exitX=0.5;exitY=0;exitDx=0;exitDy=0;" parent="1" source="Pa2Hh7tVbbIS_vWkaWcR-16" edge="1">
          <mxGeometry width="50" height="50" relative="1" as="geometry">
            <mxPoint x="-420" y="199.13" as="sourcePoint" />
            <mxPoint x="-376.75852600578673" y="109.99691471996323" as="targetPoint" />
          </mxGeometry>
        </mxCell>
        <mxCell id="Pa2Hh7tVbbIS_vWkaWcR-25" value="" style="endArrow=none;html=1;rounded=0;entryX=0;entryY=1;entryDx=0;entryDy=0;exitX=0.5;exitY=0;exitDx=0;exitDy=0;" parent="1" source="Pa2Hh7tVbbIS_vWkaWcR-16" target="Pa2Hh7tVbbIS_vWkaWcR-21" edge="1">
          <mxGeometry width="50" height="50" relative="1" as="geometry">
            <mxPoint x="-400" y="219.13" as="sourcePoint" />
            <mxPoint x="-370" y="159.13" as="targetPoint" />
          </mxGeometry>
        </mxCell>
        <mxCell id="Pa2Hh7tVbbIS_vWkaWcR-26" value="" style="endArrow=none;html=1;rounded=0;entryX=1;entryY=0.5;entryDx=0;entryDy=0;exitX=0.5;exitY=0;exitDx=0;exitDy=0;" parent="1" source="Pa2Hh7tVbbIS_vWkaWcR-16" target="Pa2Hh7tVbbIS_vWkaWcR-17" edge="1">
          <mxGeometry width="50" height="50" relative="1" as="geometry">
            <mxPoint x="-390" y="199.13" as="sourcePoint" />
            <mxPoint x="-476" y="128.13" as="targetPoint" />
          </mxGeometry>
        </mxCell>
        <mxCell id="8h97ZJDLUxf_b84R5fsu-1" value="Customer" style="whiteSpace=wrap;html=1;align=center;" parent="1" vertex="1">
          <mxGeometry x="-291" y="545" width="100" height="40" as="geometry" />
        </mxCell>
        <mxCell id="8h97ZJDLUxf_b84R5fsu-2" value="Code" style="ellipse;whiteSpace=wrap;html=1;align=center;fontStyle=4;" parent="1" vertex="1">
          <mxGeometry x="-400" y="495" width="100" height="40" as="geometry" />
        </mxCell>
        <mxCell id="8h97ZJDLUxf_b84R5fsu-3" value="" style="endArrow=none;html=1;rounded=0;entryX=1;entryY=0.5;entryDx=0;entryDy=0;exitX=0.4;exitY=0;exitDx=0;exitDy=0;exitPerimeter=0;" parent="1" source="8h97ZJDLUxf_b84R5fsu-1" target="8h97ZJDLUxf_b84R5fsu-2" edge="1">
          <mxGeometry width="50" height="50" relative="1" as="geometry">
            <mxPoint x="-271" y="545" as="sourcePoint" />
            <mxPoint x="-347" y="484" as="targetPoint" />
          </mxGeometry>
        </mxCell>
        <mxCell id="8h97ZJDLUxf_b84R5fsu-4" value="Name" style="ellipse;whiteSpace=wrap;html=1;align=center;" parent="1" vertex="1">
          <mxGeometry x="-341" y="445" width="100" height="40" as="geometry" />
        </mxCell>
        <mxCell id="8h97ZJDLUxf_b84R5fsu-6" value="Address" style="ellipse;whiteSpace=wrap;html=1;align=center;" parent="1" vertex="1">
          <mxGeometry x="-191" y="495" width="100" height="40" as="geometry" />
        </mxCell>
        <mxCell id="8h97ZJDLUxf_b84R5fsu-7" value="" style="endArrow=none;html=1;rounded=0;entryX=0;entryY=1;entryDx=0;entryDy=0;" parent="1" target="8h97ZJDLUxf_b84R5fsu-6" edge="1">
          <mxGeometry width="50" height="50" relative="1" as="geometry">
            <mxPoint x="-231" y="545" as="sourcePoint" />
            <mxPoint x="-171" y="515" as="targetPoint" />
          </mxGeometry>
        </mxCell>
        <mxCell id="8h97ZJDLUxf_b84R5fsu-8" value="" style="endArrow=none;html=1;rounded=0;entryX=0.5;entryY=1;entryDx=0;entryDy=0;exitX=0.5;exitY=0;exitDx=0;exitDy=0;" parent="1" source="8h97ZJDLUxf_b84R5fsu-1" target="8h97ZJDLUxf_b84R5fsu-4" edge="1">
          <mxGeometry width="50" height="50" relative="1" as="geometry">
            <mxPoint x="-261" y="555" as="sourcePoint" />
            <mxPoint x="-341" y="515" as="targetPoint" />
          </mxGeometry>
        </mxCell>
        <mxCell id="8h97ZJDLUxf_b84R5fsu-9" value="" style="endArrow=none;html=1;rounded=0;entryX=0.348;entryY=0.99;entryDx=0;entryDy=0;exitX=0.5;exitY=0;exitDx=0;exitDy=0;entryPerimeter=0;" parent="1" source="8h97ZJDLUxf_b84R5fsu-1" target="8h97ZJDLUxf_b84R5fsu-10" edge="1">
          <mxGeometry width="50" height="50" relative="1" as="geometry">
            <mxPoint x="-321" y="506" as="sourcePoint" />
            <mxPoint x="-241" y="486" as="targetPoint" />
          </mxGeometry>
        </mxCell>
        <mxCell id="8h97ZJDLUxf_b84R5fsu-10" value="&lt;u&gt;CPF&lt;/u&gt;" style="ellipse;whiteSpace=wrap;html=1;align=center;" parent="1" vertex="1">
          <mxGeometry x="-231" y="445" width="80" height="40" as="geometry" />
        </mxCell>
        <mxCell id="8h97ZJDLUxf_b84R5fsu-11" value="Sale" style="whiteSpace=wrap;html=1;align=center;" parent="1" vertex="1">
          <mxGeometry x="283.5" y="535" width="100" height="40" as="geometry" />
        </mxCell>
        <mxCell id="8h97ZJDLUxf_b84R5fsu-12" value="Code" style="ellipse;whiteSpace=wrap;html=1;align=center;fontStyle=4;" parent="1" vertex="1">
          <mxGeometry x="160" y="476" width="100" height="40" as="geometry" />
        </mxCell>
        <mxCell id="8h97ZJDLUxf_b84R5fsu-13" value="" style="endArrow=none;html=1;rounded=0;entryX=1;entryY=0.5;entryDx=0;entryDy=0;exitX=0.5;exitY=0;exitDx=0;exitDy=0;" parent="1" source="8h97ZJDLUxf_b84R5fsu-11" target="8h97ZJDLUxf_b84R5fsu-12" edge="1">
          <mxGeometry width="50" height="50" relative="1" as="geometry">
            <mxPoint x="309" y="526" as="sourcePoint" />
            <mxPoint x="213" y="465" as="targetPoint" />
          </mxGeometry>
        </mxCell>
        <mxCell id="8h97ZJDLUxf_b84R5fsu-14" value="Invoice" style="ellipse;whiteSpace=wrap;html=1;align=center;fontStyle=4;" parent="1" vertex="1">
          <mxGeometry x="210" y="426" width="93.5" height="40" as="geometry" />
        </mxCell>
        <mxCell id="8h97ZJDLUxf_b84R5fsu-15" value="" style="endArrow=none;html=1;rounded=0;entryX=0.745;entryY=0.99;entryDx=0;entryDy=0;exitX=0.5;exitY=0;exitDx=0;exitDy=0;entryPerimeter=0;" parent="1" source="8h97ZJDLUxf_b84R5fsu-11" target="8h97ZJDLUxf_b84R5fsu-14" edge="1">
          <mxGeometry width="50" height="50" relative="1" as="geometry">
            <mxPoint x="383.5" y="486" as="sourcePoint" />
            <mxPoint x="263" y="415" as="targetPoint" />
          </mxGeometry>
        </mxCell>
        <mxCell id="8h97ZJDLUxf_b84R5fsu-16" value="" style="endArrow=none;html=1;rounded=0;entryX=0.393;entryY=1;entryDx=0;entryDy=0;exitX=0.5;exitY=0;exitDx=0;exitDy=0;entryPerimeter=0;" parent="1" source="8h97ZJDLUxf_b84R5fsu-11" target="8h97ZJDLUxf_b84R5fsu-18" edge="1">
          <mxGeometry width="50" height="50" relative="1" as="geometry">
            <mxPoint x="453.5000000000002" y="526.8" as="sourcePoint" />
            <mxPoint x="370.0999999999999" y="465.6" as="targetPoint" />
          </mxGeometry>
        </mxCell>
        <mxCell id="8h97ZJDLUxf_b84R5fsu-18" value="Finished at" style="ellipse;whiteSpace=wrap;html=1;align=center;" parent="1" vertex="1">
          <mxGeometry x="307" y="416" width="90" height="40" as="geometry" />
        </mxCell>
        <mxCell id="8h97ZJDLUxf_b84R5fsu-19" value="Finished" style="ellipse;whiteSpace=wrap;html=1;align=center;" parent="1" vertex="1">
          <mxGeometry x="414" y="485" width="106" height="40" as="geometry" />
        </mxCell>
        <mxCell id="8h97ZJDLUxf_b84R5fsu-20" value="" style="endArrow=none;html=1;rounded=0;exitX=0.5;exitY=0;exitDx=0;exitDy=0;entryX=0.06;entryY=0.74;entryDx=0;entryDy=0;entryPerimeter=0;" parent="1" source="8h97ZJDLUxf_b84R5fsu-11" target="8h97ZJDLUxf_b84R5fsu-19" edge="1">
          <mxGeometry width="50" height="50" relative="1" as="geometry">
            <mxPoint x="393.5000000000002" y="548.4000000000001" as="sourcePoint" />
            <mxPoint x="407.6999999999998" y="516" as="targetPoint" />
          </mxGeometry>
        </mxCell>
        <mxCell id="8h97ZJDLUxf_b84R5fsu-22" value="" style="endArrow=none;html=1;rounded=0;exitX=0.5;exitY=0;exitDx=0;exitDy=0;entryX=0.042;entryY=0.75;entryDx=0;entryDy=0;entryPerimeter=0;" parent="1" source="8h97ZJDLUxf_b84R5fsu-11" target="8h97ZJDLUxf_b84R5fsu-23" edge="1">
          <mxGeometry width="50" height="50" relative="1" as="geometry">
            <mxPoint x="303.5" y="484" as="sourcePoint" />
            <mxPoint x="383.5" y="464" as="targetPoint" />
          </mxGeometry>
        </mxCell>
        <mxCell id="8h97ZJDLUxf_b84R5fsu-23" value="Total Price" style="ellipse;whiteSpace=wrap;html=1;align=center;" parent="1" vertex="1">
          <mxGeometry x="393.5" y="438" width="100" height="38" as="geometry" />
        </mxCell>
        <mxCell id="8h97ZJDLUxf_b84R5fsu-24" value="Store" style="whiteSpace=wrap;html=1;align=center;" parent="1" vertex="1">
          <mxGeometry x="240" y="140.13" width="100" height="40" as="geometry" />
        </mxCell>
        <mxCell id="8h97ZJDLUxf_b84R5fsu-25" value="Code" style="ellipse;whiteSpace=wrap;html=1;align=center;fontStyle=4;" parent="1" vertex="1">
          <mxGeometry x="130" y="90.13" width="100" height="40" as="geometry" />
        </mxCell>
        <mxCell id="8h97ZJDLUxf_b84R5fsu-26" value="" style="endArrow=none;html=1;rounded=0;entryX=1;entryY=0.5;entryDx=0;entryDy=0;exitX=0.398;exitY=0.02;exitDx=0;exitDy=0;exitPerimeter=0;" parent="1" target="8h97ZJDLUxf_b84R5fsu-25" edge="1">
          <mxGeometry width="50" height="50" relative="1" as="geometry">
            <mxPoint x="279.79999999999995" y="140.13" as="sourcePoint" />
            <mxPoint x="160" y="58.33000000000005" as="targetPoint" />
          </mxGeometry>
        </mxCell>
        <mxCell id="8h97ZJDLUxf_b84R5fsu-27" value="" style="endArrow=none;html=1;rounded=0;entryX=0.5;entryY=1;entryDx=0;entryDy=0;exitX=0.5;exitY=0;exitDx=0;exitDy=0;" parent="1" target="8h97ZJDLUxf_b84R5fsu-28" edge="1">
          <mxGeometry width="50" height="50" relative="1" as="geometry">
            <mxPoint x="287" y="139.13" as="sourcePoint" />
            <mxPoint x="197" y="119.13" as="targetPoint" />
          </mxGeometry>
        </mxCell>
        <mxCell id="8h97ZJDLUxf_b84R5fsu-28" value="CNPJ" style="ellipse;whiteSpace=wrap;html=1;align=center;fontStyle=4;" parent="1" vertex="1">
          <mxGeometry x="190" y="46.13" width="100" height="40" as="geometry" />
        </mxCell>
        <mxCell id="8h97ZJDLUxf_b84R5fsu-29" value="Address" style="ellipse;whiteSpace=wrap;html=1;align=center;" parent="1" vertex="1">
          <mxGeometry x="350" y="90.13" width="100" height="40" as="geometry" />
        </mxCell>
        <mxCell id="8h97ZJDLUxf_b84R5fsu-30" value="" style="endArrow=none;html=1;rounded=0;entryX=0;entryY=1;entryDx=0;entryDy=0;exitX=0.5;exitY=0;exitDx=0;exitDy=0;" parent="1" source="8h97ZJDLUxf_b84R5fsu-24" target="8h97ZJDLUxf_b84R5fsu-29" edge="1">
          <mxGeometry width="50" height="50" relative="1" as="geometry">
            <mxPoint x="300" y="140.13" as="sourcePoint" />
            <mxPoint x="317" y="109.13" as="targetPoint" />
          </mxGeometry>
        </mxCell>
        <mxCell id="8h97ZJDLUxf_b84R5fsu-31" value="" style="endArrow=none;html=1;rounded=0;entryX=0;entryY=1;entryDx=0;entryDy=0;exitX=0.5;exitY=0;exitDx=0;exitDy=0;" parent="1" source="8h97ZJDLUxf_b84R5fsu-24" target="8h97ZJDLUxf_b84R5fsu-32" edge="1">
          <mxGeometry width="50" height="50" relative="1" as="geometry">
            <mxPoint x="230" y="104.13" as="sourcePoint" />
            <mxPoint x="257" y="73.13" as="targetPoint" />
          </mxGeometry>
        </mxCell>
        <mxCell id="8h97ZJDLUxf_b84R5fsu-32" value="Name" style="ellipse;whiteSpace=wrap;html=1;align=center;" parent="1" vertex="1">
          <mxGeometry x="296" y="50.13" width="89" height="40" as="geometry" />
        </mxCell>
        <mxCell id="8h97ZJDLUxf_b84R5fsu-34" value="Provides" style="shape=rhombus;perimeter=rhombusPerimeter;whiteSpace=wrap;html=1;align=center;" parent="1" vertex="1">
          <mxGeometry x="-460" y="291.13" width="120" height="60" as="geometry" />
        </mxCell>
        <mxCell id="8h97ZJDLUxf_b84R5fsu-37" value="1 ou N" style="text;html=1;align=center;verticalAlign=middle;resizable=0;points=[];autosize=1;strokeColor=none;fillColor=none;" parent="1" vertex="1">
          <mxGeometry x="-451" y="228.13" width="60" height="30" as="geometry" />
        </mxCell>
        <mxCell id="8h97ZJDLUxf_b84R5fsu-38" value="1 ou N" style="text;html=1;align=center;verticalAlign=middle;resizable=0;points=[];autosize=1;strokeColor=none;fillColor=none;" parent="1" vertex="1">
          <mxGeometry x="-160" y="318.13" width="60" height="30" as="geometry" />
        </mxCell>
        <mxCell id="8h97ZJDLUxf_b84R5fsu-39" value="Has" style="shape=rhombus;perimeter=rhombusPerimeter;whiteSpace=wrap;html=1;align=center;" parent="1" vertex="1">
          <mxGeometry x="70" y="291.13" width="120" height="60" as="geometry" />
        </mxCell>
        <mxCell id="8h97ZJDLUxf_b84R5fsu-40" value="" style="edgeStyle=orthogonalEdgeStyle;fontSize=12;html=1;endArrow=ERmany;rounded=0;exitX=1;exitY=0.5;exitDx=0;exitDy=0;entryX=0;entryY=0.5;entryDx=0;entryDy=0;" parent="1" source="8h97ZJDLUxf_b84R5fsu-34" target="Pa2Hh7tVbbIS_vWkaWcR-7" edge="1">
          <mxGeometry width="100" height="100" relative="1" as="geometry">
            <mxPoint x="690" y="-190" as="sourcePoint" />
            <mxPoint x="-150" y="500" as="targetPoint" />
          </mxGeometry>
        </mxCell>
        <mxCell id="8h97ZJDLUxf_b84R5fsu-41" value="" style="edgeStyle=orthogonalEdgeStyle;fontSize=12;html=1;endArrow=ERmany;rounded=0;exitX=0.5;exitY=0;exitDx=0;exitDy=0;entryX=0.5;entryY=1;entryDx=0;entryDy=0;" parent="1" source="8h97ZJDLUxf_b84R5fsu-34" target="Pa2Hh7tVbbIS_vWkaWcR-16" edge="1">
          <mxGeometry width="100" height="100" relative="1" as="geometry">
            <mxPoint x="-330" y="331" as="sourcePoint" />
            <mxPoint x="-93" y="331" as="targetPoint" />
          </mxGeometry>
        </mxCell>
        <mxCell id="8h97ZJDLUxf_b84R5fsu-42" value="Amount" style="ellipse;whiteSpace=wrap;html=1;align=center;" parent="1" vertex="1">
          <mxGeometry x="80" y="396.13" width="100" height="40" as="geometry" />
        </mxCell>
        <mxCell id="8h97ZJDLUxf_b84R5fsu-43" value="" style="endArrow=none;html=1;rounded=0;entryX=0.5;entryY=0;entryDx=0;entryDy=0;" parent="1" target="8h97ZJDLUxf_b84R5fsu-42" edge="1">
          <mxGeometry relative="1" as="geometry">
            <mxPoint x="130" y="351.13" as="sourcePoint" />
            <mxPoint x="110" y="161.13" as="targetPoint" />
          </mxGeometry>
        </mxCell>
        <mxCell id="8h97ZJDLUxf_b84R5fsu-44" value="Performs" style="shape=rhombus;perimeter=rhombusPerimeter;whiteSpace=wrap;html=1;align=center;" parent="1" vertex="1">
          <mxGeometry x="490" y="130.13" width="120" height="60" as="geometry" />
        </mxCell>
        <mxCell id="8h97ZJDLUxf_b84R5fsu-45" value="1" style="text;html=1;align=center;verticalAlign=middle;resizable=0;points=[];autosize=1;strokeColor=none;fillColor=none;" parent="1" vertex="1">
          <mxGeometry x="338" y="157.13" width="30" height="30" as="geometry" />
        </mxCell>
        <mxCell id="8h97ZJDLUxf_b84R5fsu-46" value="" style="edgeStyle=orthogonalEdgeStyle;fontSize=12;html=1;endArrow=ERmandOne;rounded=0;entryX=1;entryY=0.5;entryDx=0;entryDy=0;exitX=0;exitY=0.5;exitDx=0;exitDy=0;" parent="1" source="8h97ZJDLUxf_b84R5fsu-44" target="8h97ZJDLUxf_b84R5fsu-24" edge="1">
          <mxGeometry width="100" height="100" relative="1" as="geometry">
            <mxPoint x="420" y="168.13" as="sourcePoint" />
            <mxPoint x="375" y="168.13" as="targetPoint" />
          </mxGeometry>
        </mxCell>
        <mxCell id="8h97ZJDLUxf_b84R5fsu-47" value="" style="fontSize=12;html=1;endArrow=ERzeroToMany;endFill=1;rounded=0;entryX=1;entryY=0.5;entryDx=0;entryDy=0;exitX=0.5;exitY=1;exitDx=0;exitDy=0;edgeStyle=orthogonalEdgeStyle;" parent="1" source="8h97ZJDLUxf_b84R5fsu-44" target="8h97ZJDLUxf_b84R5fsu-11" edge="1">
          <mxGeometry width="100" height="100" relative="1" as="geometry">
            <mxPoint x="535" y="371.13" as="sourcePoint" />
            <mxPoint x="535" y="451.13" as="targetPoint" />
          </mxGeometry>
        </mxCell>
        <mxCell id="8h97ZJDLUxf_b84R5fsu-48" value="0 ou N" style="text;html=1;align=center;verticalAlign=middle;resizable=0;points=[];autosize=1;strokeColor=none;fillColor=none;" parent="1" vertex="1">
          <mxGeometry x="383.5" y="554.87" width="60" height="30" as="geometry" />
        </mxCell>
        <mxCell id="8h97ZJDLUxf_b84R5fsu-50" value="" style="edgeStyle=orthogonalEdgeStyle;fontSize=12;html=1;endArrow=ERmany;rounded=0;exitX=1;exitY=0.5;exitDx=0;exitDy=0;entryX=0.5;entryY=1;entryDx=0;entryDy=0;" parent="1" source="8h97ZJDLUxf_b84R5fsu-39" target="8h97ZJDLUxf_b84R5fsu-24" edge="1">
          <mxGeometry width="100" height="100" relative="1" as="geometry">
            <mxPoint x="-222" y="301" as="sourcePoint" />
            <mxPoint x="140" y="200" as="targetPoint" />
          </mxGeometry>
        </mxCell>
        <mxCell id="8h97ZJDLUxf_b84R5fsu-51" value="" style="edgeStyle=orthogonalEdgeStyle;fontSize=12;html=1;endArrow=ERmany;rounded=0;exitX=0;exitY=0.5;exitDx=0;exitDy=0;" parent="1" source="8h97ZJDLUxf_b84R5fsu-39" edge="1">
          <mxGeometry width="100" height="100" relative="1" as="geometry">
            <mxPoint x="-270" y="396.13" as="sourcePoint" />
            <mxPoint y="320" as="targetPoint" />
          </mxGeometry>
        </mxCell>
        <mxCell id="8h97ZJDLUxf_b84R5fsu-52" value="1 ou N" style="text;html=1;align=center;verticalAlign=middle;resizable=0;points=[];autosize=1;strokeColor=none;fillColor=none;" parent="1" vertex="1">
          <mxGeometry x="230" y="175.13" width="60" height="30" as="geometry" />
        </mxCell>
        <mxCell id="8h97ZJDLUxf_b84R5fsu-53" value="1 ou N" style="text;html=1;align=center;verticalAlign=middle;resizable=0;points=[];autosize=1;strokeColor=none;fillColor=none;" parent="1" vertex="1">
          <mxGeometry x="-3" y="289.13" width="60" height="30" as="geometry" />
        </mxCell>
        <mxCell id="8h97ZJDLUxf_b84R5fsu-54" value="Has" style="shape=rhombus;perimeter=rhombusPerimeter;whiteSpace=wrap;html=1;align=center;" parent="1" vertex="1">
          <mxGeometry x="-20" y="525" width="120" height="60" as="geometry" />
        </mxCell>
        <mxCell id="8h97ZJDLUxf_b84R5fsu-56" value="" style="edgeStyle=orthogonalEdgeStyle;fontSize=12;html=1;endArrow=ERmany;rounded=0;exitX=1;exitY=0.5;exitDx=0;exitDy=0;entryX=0;entryY=0.5;entryDx=0;entryDy=0;" parent="1" source="8h97ZJDLUxf_b84R5fsu-54" target="8h97ZJDLUxf_b84R5fsu-11" edge="1">
          <mxGeometry width="100" height="100" relative="1" as="geometry">
            <mxPoint x="99.99999999999977" y="545" as="sourcePoint" />
            <mxPoint x="280" y="555" as="targetPoint" />
          </mxGeometry>
        </mxCell>
        <mxCell id="8h97ZJDLUxf_b84R5fsu-57" value="" style="endArrow=none;html=1;rounded=0;entryX=0.5;entryY=0;entryDx=0;entryDy=0;exitX=0.5;exitY=1;exitDx=0;exitDy=0;" parent="1" source="8h97ZJDLUxf_b84R5fsu-54" target="8h97ZJDLUxf_b84R5fsu-58" edge="1">
          <mxGeometry relative="1" as="geometry">
            <mxPoint x="40" y="590" as="sourcePoint" />
            <mxPoint x="20" y="386" as="targetPoint" />
          </mxGeometry>
        </mxCell>
        <mxCell id="8h97ZJDLUxf_b84R5fsu-58" value="Amount" style="ellipse;whiteSpace=wrap;html=1;align=center;" parent="1" vertex="1">
          <mxGeometry x="-10" y="621" width="100" height="40" as="geometry" />
        </mxCell>
        <mxCell id="8h97ZJDLUxf_b84R5fsu-59" value="" style="edgeStyle=orthogonalEdgeStyle;fontSize=12;html=1;endArrow=ERmany;rounded=0;entryX=0.5;entryY=1;entryDx=0;entryDy=0;exitX=0;exitY=0.5;exitDx=0;exitDy=0;" parent="1" source="8h97ZJDLUxf_b84R5fsu-54" target="Pa2Hh7tVbbIS_vWkaWcR-7" edge="1">
          <mxGeometry width="100" height="100" relative="1" as="geometry">
            <mxPoint x="50" y="370" as="sourcePoint" />
            <mxPoint x="10" y="330" as="targetPoint" />
          </mxGeometry>
        </mxCell>
        <mxCell id="8h97ZJDLUxf_b84R5fsu-60" value="1 ou N" style="text;html=1;align=center;verticalAlign=middle;resizable=0;points=[];autosize=1;strokeColor=none;fillColor=none;" parent="1" vertex="1">
          <mxGeometry x="-55" y="340.13" width="60" height="30" as="geometry" />
        </mxCell>
        <mxCell id="8h97ZJDLUxf_b84R5fsu-61" value="1 ou N" style="text;html=1;align=center;verticalAlign=middle;resizable=0;points=[];autosize=1;strokeColor=none;fillColor=none;" parent="1" vertex="1">
          <mxGeometry x="227" y="552" width="60" height="30" as="geometry" />
        </mxCell>
        <mxCell id="8h97ZJDLUxf_b84R5fsu-62" value="Belongs" style="shape=rhombus;perimeter=rhombusPerimeter;whiteSpace=wrap;html=1;align=center;" parent="1" vertex="1">
          <mxGeometry x="-33" y="720" width="120" height="60" as="geometry" />
        </mxCell>
        <mxCell id="8h97ZJDLUxf_b84R5fsu-65" value="1" style="text;html=1;align=center;verticalAlign=middle;resizable=0;points=[];autosize=1;strokeColor=none;fillColor=none;" parent="1" vertex="1">
          <mxGeometry x="307" y="574" width="30" height="30" as="geometry" />
        </mxCell>
        <mxCell id="8h97ZJDLUxf_b84R5fsu-66" value="" style="edgeStyle=orthogonalEdgeStyle;fontSize=12;html=1;endArrow=ERmandOne;rounded=0;entryX=0.5;entryY=1;entryDx=0;entryDy=0;exitX=1;exitY=0.5;exitDx=0;exitDy=0;" parent="1" source="8h97ZJDLUxf_b84R5fsu-62" target="8h97ZJDLUxf_b84R5fsu-11" edge="1">
          <mxGeometry width="100" height="100" relative="1" as="geometry">
            <mxPoint x="90" y="750" as="sourcePoint" />
            <mxPoint x="340" y="580" as="targetPoint" />
          </mxGeometry>
        </mxCell>
        <mxCell id="8h97ZJDLUxf_b84R5fsu-71" value="" style="fontSize=12;html=1;endArrow=ERzeroToMany;endFill=1;rounded=0;entryX=0.5;entryY=1;entryDx=0;entryDy=0;edgeStyle=orthogonalEdgeStyle;exitX=0;exitY=0.5;exitDx=0;exitDy=0;" parent="1" source="8h97ZJDLUxf_b84R5fsu-62" target="8h97ZJDLUxf_b84R5fsu-1" edge="1">
          <mxGeometry width="100" height="100" relative="1" as="geometry">
            <mxPoint x="-40" y="750" as="sourcePoint" />
            <mxPoint x="-219" y="1076" as="targetPoint" />
          </mxGeometry>
        </mxCell>
        <mxCell id="8h97ZJDLUxf_b84R5fsu-72" value="0 ou N" style="text;html=1;align=center;verticalAlign=middle;resizable=0;points=[];autosize=1;strokeColor=none;fillColor=none;" parent="1" vertex="1">
          <mxGeometry x="-211" y="585" width="60" height="30" as="geometry" />
        </mxCell>
      </root>
    </mxGraphModel>
  </diagram>
</mxfile>
